<svg width="68" height="69" viewBox="0 0 68 69" fill="none" xmlns="http://www.w3.org/2000/svg">
<path d="M6.77072 28.0713C6.77072 26.2598 5.30214 24.7911 3.49059 24.7911C1.67903 24.7911 0.210449 26.2598 0.210449 28.0713H6.77072ZM29.7317 68.5263C31.5432 68.5263 33.0118 67.0577 33.0118 65.2462C33.0118 63.4346 31.5432 61.966 29.7317 61.966V68.5263ZM0.210449 28.0713C0.210449 29.8828 1.67903 31.3514 3.49059 31.3514C5.30214 31.3514 6.77072 29.8828 6.77072 28.0713H0.210449ZM29.7317 7.29709C31.5432 7.29709 33.0118 5.82851 33.0118 4.01695C33.0118 2.2054 31.5432 0.736816 29.7317 0.736816V7.29709ZM3.49059 24.7911C1.67903 24.7911 0.210449 26.2598 0.210449 28.0713C0.210449 29.8828 1.67903 31.3514 3.49059 31.3514V24.7911ZM29.7317 31.3514C31.5432 31.3514 33.0118 29.8828 33.0118 28.0713C33.0118 26.2598 31.5432 24.7911 29.7317 24.7911V31.3514ZM26.4515 28.0713C26.4515 29.8828 27.9202 31.3514 29.7317 31.3514C31.5432 31.3514 33.0118 29.8828 33.0118 28.0713H26.4515ZM33.0118 4.01695C33.0118 2.2054 31.5432 0.736816 29.7317 0.736816C27.9202 0.736816 26.4515 2.2054 26.4515 4.01695H33.0118ZM33.0118 28.0713C33.0118 26.2598 31.5432 24.7911 29.7317 24.7911C27.9202 24.7911 26.4515 26.2598 26.4515 28.0713H33.0118ZM26.4515 43.3786C26.4515 45.1901 27.9202 46.6587 29.7317 46.6587C31.5432 46.6587 33.0118 45.1901 33.0118 43.3786H26.4515ZM29.7317 61.966C27.9202 61.966 26.4515 63.4346 26.4515 65.2462C26.4515 67.0577 27.9202 68.5263 29.7317 68.5263V61.966ZM67.9999 43.3786C67.9999 41.5671 66.5313 40.0984 64.7198 40.0984C62.9083 40.0984 61.4397 41.5671 61.4397 43.3786H67.9999ZM26.4515 65.2462C26.4515 67.0577 27.9202 68.5263 29.7317 68.5263C31.5432 68.5263 33.0118 67.0577 33.0118 65.2462H26.4515ZM33.0118 43.3786C33.0118 41.5671 31.5432 40.0984 29.7317 40.0984C27.9202 40.0984 26.4515 41.5671 26.4515 43.3786H33.0118ZM29.7317 0.736816C27.9202 0.736816 26.4515 2.2054 26.4515 4.01695C26.4515 5.82851 27.9202 7.29709 29.7317 7.29709V0.736816ZM61.4397 43.3786C61.4397 45.1901 62.9083 46.6587 64.7198 46.6587C66.5313 46.6587 67.9999 45.1901 67.9999 43.3786H61.4397ZM64.7198 46.6587C66.5313 46.6587 67.9999 45.1901 67.9999 43.3786C67.9999 41.5671 66.5313 40.0984 64.7198 40.0984V46.6587ZM29.7317 40.0984C27.9202 40.0984 26.4515 41.5671 26.4515 43.3786C26.4515 45.1901 27.9202 46.6587 29.7317 46.6587V40.0984ZM0.210449 28.0713V47.7521H6.77072V28.0713H0.210449ZM0.210449 47.7521C0.210449 59.2256 9.51138 68.5263 20.9846 68.5263V61.966C13.1345 61.966 6.77072 55.6021 6.77072 47.7521H0.210449ZM20.9846 68.5263H29.7317V61.966H20.9846V68.5263ZM6.77072 28.0713V21.511H0.210449V28.0713H6.77072ZM6.77072 21.511C6.77072 13.6609 13.1345 7.29709 20.9846 7.29709V0.736816C9.51138 0.736816 0.210449 10.0378 0.210449 21.511H6.77072ZM20.9846 7.29709H29.7317V0.736816H20.9846V7.29709ZM3.49059 31.3514H29.7317V24.7911H3.49059V31.3514ZM33.0118 28.0713V4.01695H26.4515V28.0713H33.0118ZM26.4515 28.0713V43.3786H33.0118V28.0713H26.4515ZM29.7317 68.5263H47.2257V61.966H29.7317V68.5263ZM47.2257 68.5263C58.6992 68.5263 67.9999 59.2256 67.9999 47.7521H61.4397C61.4397 55.6021 55.0758 61.966 47.2257 61.966V68.5263ZM67.9999 47.7521V43.3786H61.4397V47.7521H67.9999ZM33.0118 65.2462V43.3786H26.4515V65.2462H33.0118ZM29.7317 7.29709H47.2257V0.736816H29.7317V7.29709ZM47.2257 7.29709C55.0758 7.29709 61.4397 13.6609 61.4397 21.511H67.9999C67.9999 10.0378 58.6992 0.736816 47.2257 0.736816V7.29709ZM61.4397 21.511V43.3786H67.9999V21.511H61.4397ZM64.7198 40.0984H29.7317V46.6587H64.7198V40.0984Z" fill="white"/>
</svg>
