<svg width="92" height="93" viewBox="0 0 92 93" fill="none" xmlns="http://www.w3.org/2000/svg">
<path d="M2.99584 25.9344C4.3032 14.1994 13.6198 4.88279 25.3548 3.57543V6.82448C15.4034 8.0988 7.51921 15.983 6.24489 25.9344H2.99584ZM2.83871 61.5473V44.9667H4.45161H6.06452V61.5473H2.83871ZM31.0323 86.5151H32.7742V88.128V89.7409H31.0323V86.5151ZM60.9677 89.7409H47.3548V88.128V86.5151H60.9677V89.7409ZM66.6452 86.3347C76.5965 85.0603 84.4807 77.176 85.7551 67.2248H89.0042C87.6969 78.96 78.3804 88.2765 66.6452 89.5838V86.3347ZM89.1613 31.6118V51.1602H87.5484H85.9355V31.6118H89.1613ZM41.6774 44.9667V51.1602H40.0645H38.4516V44.9667H40.0645H41.6774ZM47.3548 6.64411V5.0312V3.4183H60.9677V6.64411H47.3548ZM85.7551 25.9344C84.4808 15.983 76.5965 8.09882 66.6452 6.82449V3.57543C78.3804 4.88276 87.6968 14.1994 89.0042 25.9344H85.7551ZM31.0323 3.4183H32.7742V5.0312V6.64411H31.0323V3.4183ZM32.7742 39.2893H11.7419V37.6764V36.0635H32.7742V37.6764V39.2893ZM40.0645 30.386H38.4516V12.3215H40.0645H41.6774V30.386H40.0645ZM41.6774 65.7409V80.8377H40.0645H38.4516V65.7409H40.0645H41.6774ZM47.3548 56.8377H80.2581V58.4506V60.0635H47.3548V58.4506V56.8377ZM25.3548 86.3347V89.5838C13.6198 88.2764 4.30317 78.9599 2.99584 67.2248H6.2449C7.51923 77.176 15.4034 85.0603 25.3548 86.3347Z" fill="#4A4A4A" stroke="white" stroke-width="5.67742"/>
</svg>
