<svg width="68" height="68" viewBox="0 0 68 68" fill="none" xmlns="http://www.w3.org/2000/svg">
<path d="M6.56027 27.3345C6.56027 25.523 5.09169 24.0543 3.28014 24.0543C1.46858 24.0543 0 25.523 0 27.3345H6.56027ZM29.5212 67.7895C31.3327 67.7895 32.8014 66.3208 32.8014 64.5093C32.8014 62.6978 31.3327 61.2292 29.5212 61.2292V67.7895ZM0 27.3345C0 29.146 1.46858 30.6146 3.28014 30.6146C5.09169 30.6146 6.56027 29.146 6.56027 27.3345H0ZM29.5212 6.56027C31.3327 6.56027 32.8014 5.09169 32.8014 3.28014C32.8014 1.46858 31.3327 0 29.5212 0V6.56027ZM3.28014 24.0543C1.46858 24.0543 0 25.523 0 27.3345C0 29.146 1.46858 30.6146 3.28014 30.6146V24.0543ZM29.5212 30.6146C31.3327 30.6146 32.8014 29.146 32.8014 27.3345C32.8014 25.523 31.3327 24.0543 29.5212 24.0543V30.6146ZM26.2411 27.3345C26.2411 29.146 27.7097 30.6146 29.5212 30.6146C31.3327 30.6146 32.8014 29.146 32.8014 27.3345H26.2411ZM32.8014 3.28014C32.8014 1.46858 31.3327 0 29.5212 0C27.7097 0 26.2411 1.46858 26.2411 3.28014H32.8014ZM32.8014 27.3345C32.8014 25.523 31.3327 24.0543 29.5212 24.0543C27.7097 24.0543 26.2411 25.523 26.2411 27.3345H32.8014ZM26.2411 42.6418C26.2411 44.4533 27.7097 45.9219 29.5212 45.9219C31.3327 45.9219 32.8014 44.4533 32.8014 42.6418H26.2411ZM29.5212 61.2292C27.7097 61.2292 26.2411 62.6978 26.2411 64.5093C26.2411 66.3208 27.7097 67.7895 29.5212 67.7895V61.2292ZM67.7895 42.6418C67.7895 40.8303 66.3208 39.3616 64.5093 39.3616C62.6978 39.3616 61.2292 40.8303 61.2292 42.6418H67.7895ZM26.2411 64.5093C26.2411 66.3208 27.7097 67.7895 29.5212 67.7895C31.3327 67.7895 32.8014 66.3208 32.8014 64.5093H26.2411ZM32.8014 42.6418C32.8014 40.8303 31.3327 39.3616 29.5212 39.3616C27.7097 39.3616 26.2411 40.8303 26.2411 42.6418H32.8014ZM29.5212 0C27.7097 0 26.2411 1.46858 26.2411 3.28014C26.2411 5.09169 27.7097 6.56027 29.5212 6.56027V0ZM61.2292 42.6418C61.2292 44.4533 62.6978 45.9219 64.5093 45.9219C66.3208 45.9219 67.7895 44.4533 67.7895 42.6418H61.2292ZM64.5093 45.9219C66.3208 45.9219 67.7895 44.4533 67.7895 42.6418C67.7895 40.8303 66.3208 39.3616 64.5093 39.3616V45.9219ZM29.5212 39.3616C27.7097 39.3616 26.2411 40.8303 26.2411 42.6418C26.2411 44.4533 27.7097 45.9219 29.5212 45.9219V39.3616ZM0 27.3345V47.0153H6.56027V27.3345H0ZM0 47.0153C0 58.4888 9.30094 67.7895 20.7742 67.7895V61.2292C12.924 61.2292 6.56027 54.8653 6.56027 47.0153H0ZM20.7742 67.7895H29.5212V61.2292H20.7742V67.7895ZM6.56027 27.3345V20.7742H0V27.3345H6.56027ZM6.56027 20.7742C6.56027 12.924 12.924 6.56027 20.7742 6.56027V0C9.30094 0 0 9.30094 0 20.7742H6.56027ZM20.7742 6.56027H29.5212V0H20.7742V6.56027ZM3.28014 30.6146H29.5212V24.0543H3.28014V30.6146ZM32.8014 27.3345V3.28014H26.2411V27.3345H32.8014ZM26.2411 27.3345V42.6418H32.8014V27.3345H26.2411ZM29.5212 67.7895H47.0153V61.2292H29.5212V67.7895ZM47.0153 67.7895C58.4888 67.7895 67.7895 58.4888 67.7895 47.0153H61.2292C61.2292 54.8653 54.8653 61.2292 47.0153 61.2292V67.7895ZM67.7895 47.0153V42.6418H61.2292V47.0153H67.7895ZM32.8014 64.5093V42.6418H26.2411V64.5093H32.8014ZM29.5212 6.56027H47.0153V0H29.5212V6.56027ZM47.0153 6.56027C54.8653 6.56027 61.2292 12.924 61.2292 20.7742H67.7895C67.7895 9.30094 58.4888 0 47.0153 0V6.56027ZM61.2292 20.7742V42.6418H67.7895V20.7742H61.2292ZM64.5093 39.3616H29.5212V45.9219H64.5093V39.3616Z" fill="white"/>
</svg>
