<svg width="103" height="106" viewBox="0 0 103 106" fill="none" xmlns="http://www.w3.org/2000/svg">
<path fill-rule="evenodd" clip-rule="evenodd" d="M35.1479 12.4809C22.5956 13.1658 12.5691 23.4524 11.9048 36.3266C3.51091 45.9103 3.51091 60.4422 11.9048 70.0264C12.5463 82.9259 22.603 93.2345 35.1807 93.8856C44.5202 102.507 58.6982 102.507 68.0377 93.8856C80.6157 93.2345 90.6723 82.9259 91.314 70.0264C99.7078 60.4422 99.7078 45.9103 91.314 36.3266C90.6494 23.4524 80.6231 13.1658 68.0707 12.4809C58.711 3.83971 44.5079 3.83971 35.1479 12.4809Z" stroke="white" stroke-width="10.1099" stroke-linecap="round" stroke-linejoin="round"/>
<path fill-rule="evenodd" clip-rule="evenodd" d="M61.2619 53.1762C61.2619 58.6437 56.94 63.076 51.6093 63.076C46.2787 63.076 41.957 58.6437 41.957 53.1762C41.957 47.7087 46.2787 43.2764 51.6093 43.2764C56.94 43.2764 61.2619 47.7087 61.2619 53.1762Z" stroke="white" stroke-width="8.48555" stroke-linecap="round" stroke-linejoin="round"/>
</svg>
