<svg width="90" height="91" viewBox="0 0 90 91" fill="none" xmlns="http://www.w3.org/2000/svg">
<path fill-rule="evenodd" clip-rule="evenodd" d="M32.482 15.1925C23.2568 15.6959 15.888 23.2559 15.3997 32.7177C9.2307 39.7611 9.2307 50.4412 15.3997 57.485C15.8712 66.9653 23.2622 74.5416 32.5061 75.0201C39.37 81.356 49.7901 81.356 56.654 75.0201C65.8981 74.5416 73.2891 66.9653 73.7607 57.485C79.9296 50.4412 79.9296 39.7611 73.7607 32.7177C73.2722 23.2559 65.9035 15.6959 56.6783 15.1925C49.7995 8.84176 39.361 8.84176 32.482 15.1925Z" stroke="white" stroke-width="7.43013" stroke-linecap="round" stroke-linejoin="round"/>
<path fill-rule="evenodd" clip-rule="evenodd" d="M51.6743 45.1012C51.6743 49.1195 48.4979 52.377 44.5802 52.377C40.6625 52.377 37.4863 49.1195 37.4863 45.1012C37.4863 41.0829 40.6625 37.8254 44.5802 37.8254C48.4979 37.8254 51.6743 41.0829 51.6743 45.1012Z" stroke="white" stroke-width="6.23636" stroke-linecap="round" stroke-linejoin="round"/>
</svg>
