<svg width="53" height="52" viewBox="0 0 53 52" fill="none" xmlns="http://www.w3.org/2000/svg">
<g clip-path="url(#clip0_918_157)">
<path fill-rule="evenodd" clip-rule="evenodd" d="M19.4855 36.4617C23.5355 39.845 29.4678 39.845 33.5178 36.4617C34.792 35.399 35.7746 34.0363 36.375 32.5C33.1064 33.0054 29.8075 33.2962 26.5 33.371C23.1925 33.2962 19.8936 33.0054 16.625 32.5C17.2265 34.0366 18.2102 35.3993 19.4855 36.4617Z" stroke="#61FF17" stroke-width="4.875" stroke-linecap="round" stroke-linejoin="round"/>
<path d="M34.1159 23.7337C34.6663 24.9654 36.1238 25.5234 37.3711 24.98C38.6186 24.4366 39.1838 22.9975 38.6334 21.7661L34.1159 23.7337ZM27.5326 21.7661C26.9822 22.9975 27.5474 24.4366 28.795 24.98C30.0422 25.5234 31.4997 24.9654 32.0501 23.7337L27.5326 21.7661ZM20.9493 23.7337C21.4996 24.9654 22.9572 25.5234 24.2044 24.98C25.4519 24.4366 26.0171 22.9975 25.4667 21.7661L20.9493 23.7337ZM14.366 21.7661C13.8156 22.9975 14.3807 24.4366 15.6282 24.98C16.8756 25.5234 18.333 24.9654 18.8833 23.7337L14.366 21.7661ZM38.6334 21.7661C37.6634 19.5948 35.4866 18.194 33.083 18.194V23.069C33.5303 23.069 33.9355 23.3297 34.1159 23.7337L38.6334 21.7661ZM33.083 18.194C30.6794 18.194 28.5026 19.5948 27.5326 21.7661L32.0501 23.7337C32.2305 23.3297 32.6357 23.069 33.083 23.069V18.194ZM25.4667 21.7661C24.4967 19.5948 22.3199 18.194 19.9163 18.194V23.069C20.3637 23.069 20.7689 23.3297 20.9493 23.7337L25.4667 21.7661ZM19.9163 18.194C17.5129 18.194 15.3361 19.5948 14.366 21.7661L18.8833 23.7337C19.0639 23.3297 19.469 23.069 19.9163 23.069V18.194ZM47.0726 25.9999C47.0726 37.2182 37.8618 46.3124 26.4997 46.3124V51.1874C40.5887 51.1874 52.0101 39.9105 52.0101 25.9999H47.0726ZM26.4997 46.3124C15.1376 46.3124 5.92676 37.2182 5.92676 25.9999H0.989258C0.989258 39.9105 12.4106 51.1874 26.4997 51.1874V46.3124ZM5.92676 25.9999C5.92676 14.7816 15.1376 5.68738 26.4997 5.68738V0.812378C12.4106 0.812378 0.989258 12.0892 0.989258 25.9999H5.92676ZM26.4997 5.68738C31.9559 5.68738 37.1887 7.82744 41.0469 11.6368L44.5383 8.18962C39.7542 3.46607 33.2654 0.812378 26.4997 0.812378V5.68738ZM41.0469 11.6368C44.905 15.4461 47.0726 20.6127 47.0726 25.9999H52.0101C52.0101 19.3197 49.3224 12.9132 44.5383 8.18962L41.0469 11.6368Z" fill="#61FF17"/>
</g>
<defs>
<clipPath id="clip0_918_157">
<rect width="53" height="52" fill="white"/>
</clipPath>
</defs>
</svg>
