<svg width="56" height="48" viewBox="0 0 56 48" fill="none" xmlns="http://www.w3.org/2000/svg">
<path fill-rule="evenodd" clip-rule="evenodd" d="M14.0361 13.3364V27.6224C14.0361 35.4788 20.4051 41.8479 28.2616 41.8479C36.118 41.8479 42.4872 35.4788 42.4872 27.6224V13.3364H14.0361Z" stroke="#EF3232" stroke-width="5.32543" stroke-linecap="round" stroke-linejoin="round"/>
<path d="M22.0415 11.5613H20.2572V11.5552H22.0415V11.5613ZM20.4547 8.0049C21.133 5.00916 23.4912 2.6509 26.487 1.97265V3.81636C24.4788 4.4132 22.8953 5.99673 22.2985 8.0049H20.4547ZM30.0373 3.81636V1.97265C33.033 2.6509 35.3913 5.00916 36.0695 8.0049H34.2258C33.629 5.99673 32.0455 4.4132 30.0373 3.81636ZM34.4827 11.5552H36.267V11.5613H34.4827V11.5552ZM27.37 29.3975H29.1543V40.1332H27.37V29.3975ZM5.14262 28.5145V26.7303H12.2615V28.5145H5.14262ZM12.1526 12.7059L7.54211 8.06551L8.80789 6.80791L13.4184 11.4483L12.1526 12.7059ZM47.7165 6.80796L48.982 8.06544L44.3716 12.7059L43.106 11.4484L47.7165 6.80796ZM17.5843 39.6099L12.5463 44.6692L11.282 43.4102L16.32 38.3509L17.5843 39.6099ZM51.3816 26.7303V28.5145H44.2628V26.7303H51.3816ZM43.9778 44.6693L38.9398 39.6099L40.2044 38.3508L45.2424 43.4102L43.9778 44.6693Z" fill="black" stroke="#EF3232" stroke-width="3.55028"/>
</svg>
