<svg width="46" height="49" viewBox="0 0 46 49" fill="none" xmlns="http://www.w3.org/2000/svg">
<g clip-path="url(#clip0_918_177)">
<path fill-rule="evenodd" clip-rule="evenodd" d="M3.17188 22.8844L3.17188 31.6055C3.17188 39.633 9.5168 46.1407 17.3437 46.1407H28.6811C32.4396 46.1407 36.0443 44.6092 38.7019 41.8833C41.3598 39.1577 42.8529 35.4605 42.8529 31.6055V22.8844C42.8567 19.0282 41.3648 15.3289 38.7063 12.6022C36.0478 9.87553 32.4408 8.34538 28.6811 8.34925L17.3437 8.34925C13.5839 8.34538 9.9771 9.87553 7.31856 12.6022C4.66002 15.3289 3.16813 19.0282 3.17188 22.8844Z" stroke="#008CFF" stroke-width="4.36055" stroke-linecap="round" stroke-linejoin="round"/>
<path d="M12.3291 14.1633C12.3291 15.3674 13.3053 16.3435 14.5094 16.3435C15.7135 16.3435 16.6897 15.3674 16.6897 14.1633H12.3291ZM16.6897 2.53513C16.6897 1.33101 15.7135 0.354858 14.5094 0.354858C13.3053 0.354858 12.3291 1.33101 12.3291 2.53513L16.6897 2.53513ZM29.3352 14.1633C29.3352 15.3674 30.3114 16.3435 31.5155 16.3435C32.7196 16.3435 33.6957 15.3674 33.6957 14.1633H29.3352ZM33.6957 2.53513C33.6957 1.33101 32.7196 0.354858 31.5155 0.354858C30.3114 0.354858 29.3352 1.33101 29.3352 2.53513H33.6957ZM16.0705 27.1763C15.2299 26.3141 13.8495 26.2966 12.9873 27.1374C12.1252 27.9781 12.1077 29.3583 12.9483 30.2205L16.0705 27.1763ZM20.178 34.5125L18.617 36.0346C19.0274 36.4555 19.5902 36.6928 20.178 36.6928C20.7658 36.6928 21.3289 36.4555 21.7391 36.0346L20.178 34.5125ZM33.0765 24.4065C33.9172 23.5443 33.8998 22.164 33.0376 21.3233C32.1754 20.4826 30.7951 20.5 29.9544 21.3622L33.0765 24.4065ZM16.6897 14.1633V2.53513L12.3291 2.53513L12.3291 14.1633H16.6897ZM33.6957 14.1633V2.53513H29.3352V14.1633H33.6957ZM12.9483 30.2205L18.617 36.0346L21.7391 32.9904L16.0705 27.1763L12.9483 30.2205ZM21.7391 36.0346L33.0765 24.4065L29.9544 21.3622L18.617 32.9904L21.7391 36.0346Z" fill="#008CFF"/>
</g>
<defs>
<clipPath id="clip0_918_177">
<rect width="46" height="49" fill="white"/>
</clipPath>
</defs>
</svg>
